<?xml version="1.0" encoding="UTF-8" standalone="no"?>
<svg xmlns:dc="http://purl.org/dc/elements/1.1/" xmlns:cc="http://creativecommons.org/ns#" xmlns:rdf="http://www.w3.org/1999/02/22-rdf-syntax-ns#" xmlns:svg="http://www.w3.org/2000/svg" xmlns="http://www.w3.org/2000/svg" xmlns:sodipodi="http://sodipodi.sourceforge.net/DTD/sodipodi-0.dtd" xmlns:inkscape="http://www.inkscape.org/namespaces/inkscape" width="100" height="100" id="svg7960" version="1.1" inkscape:version="0.48.4 r9939" sodipodi:docname="COD.svg">
  <defs id="defs7962">
    <clipPath clipPathUnits="userSpaceOnUse" id="clipPath3094-8">
      <path style="font-size:medium;font-style:normal;font-variant:normal;font-weight:normal;font-stretch:normal;text-indent:0;text-align:start;text-decoration:none;line-height:normal;letter-spacing:normal;word-spacing:normal;text-transform:none;direction:ltr;block-progression:tb;writing-mode:lr-tb;text-anchor:start;baseline-shift:baseline;color:#000000;fill:#ee0028;fill-opacity:1;stroke:none;stroke-width:1px;marker:none;visibility:visible;display:inline;overflow:visible;enable-background:accumulate;font-family:Sans;-inkscape-font-specification:Sans" d="m 1475.7812,430.15625 0,1 7.4688,0 0,-1 -7.4688,0 z m -1.6562,2.53125 0,1 10.7812,0 0,-1 -10.7812,0 z m -0.625,2.5 0,1 12.0625,0 0,-1 -12.0625,0 z m 0.625,2.53125 0,1 10.7812,0 0,-1 -10.7812,0 z m 0,2.53125 0,1 10.7812,0 0,-1 -10.7812,0 z" id="path3096-8" inkscape:connector-curvature="0"/>
    </clipPath>
    <clipPath clipPathUnits="userSpaceOnUse" id="clipPath3094-8-2">
      <path style="font-size:medium;font-style:normal;font-variant:normal;font-weight:normal;font-stretch:normal;text-indent:0;text-align:start;text-decoration:none;line-height:normal;letter-spacing:normal;word-spacing:normal;text-transform:none;direction:ltr;block-progression:tb;writing-mode:lr-tb;text-anchor:start;baseline-shift:baseline;color:#000000;fill:#ee0028;fill-opacity:1;stroke:none;stroke-width:1px;marker:none;visibility:visible;display:inline;overflow:visible;enable-background:accumulate;font-family:Sans;-inkscape-font-specification:Sans" d="m 1475.7812,430.15625 0,1 7.4688,0 0,-1 -7.4688,0 z m -1.6562,2.53125 0,1 10.7812,0 0,-1 -10.7812,0 z m -0.625,2.5 0,1 12.0625,0 0,-1 -12.0625,0 z m 0.625,2.53125 0,1 10.7812,0 0,-1 -10.7812,0 z m 0,2.53125 0,1 10.7812,0 0,-1 -10.7812,0 z" id="path3096-8-4" inkscape:connector-curvature="0"/>
    </clipPath>
  </defs>
  <sodipodi:namedview id="base" pagecolor="#ffffff" bordercolor="#666666" borderopacity="1.0" inkscape:pageopacity="0.0" inkscape:pageshadow="2" inkscape:zoom="1.979899" inkscape:cx="120.66649" inkscape:cy="91.541357" inkscape:document-units="px" inkscape:current-layer="g5156" showgrid="false" inkscape:window-width="667" inkscape:window-height="689" inkscape:window-x="683" inkscape:window-y="0" inkscape:window-maximized="0"/>
  
  <g inkscape:label="Layer 1" inkscape:groupmode="layer" id="layer1" transform="translate(0,-952.36218)">
    <g transform="translate(92.77933,666.79917)" id="g5156">
      <rect rx="3.5986683" ry="3.5986683" y="317.7287" x="-73.878845" height="40.714283" width="63.214283" id="rect5158" style="fill:#f9f9f9;fill-opacity:1;fill-rule:evenodd;stroke:#000000;stroke-width:0.80000001;stroke-linecap:round;stroke-linejoin:round;stroke-miterlimit:4;stroke-opacity:1;stroke-dasharray:none;stroke-dashoffset:0"/>
      <g style="font-size:25.73008919px;font-style:normal;font-weight:normal;line-height:125%;letter-spacing:0px;word-spacing:0px;fill:#4d4d4d;fill-opacity:1;stroke:none;font-family:Sans;-inkscape-font-specification:'Segoe WP Black, Ultra-Bold'" id="text5160">
        <path d="m -54.464473,346.85399 c -0.209407,0.0754 -0.479522,0.16123 -0.810347,0.25755 -0.330853,0.0963 -0.71404,0.18426 -1.149562,0.26383 -0.435548,0.0796 -0.921337,0.14658 -1.457368,0.20102 -0.536055,0.0544 -1.118164,0.0817 -1.746329,0.0817 -1.599764,0 -2.981749,-0.23871 -4.145962,-0.71612 -1.164224,-0.47741 -2.123239,-1.12234 -2.877046,-1.93478 -0.753813,-0.81244 -1.31289,-1.7568 -1.67723,-2.83307 -0.364343,-1.07627 -0.546514,-2.21746 -0.546513,-3.42356 -10e-7,-1.42386 0.23033,-2.73046 0.690993,-3.91982 0.460661,-1.18934 1.120245,-2.21536 1.978755,-3.07806 0.858503,-0.86268 1.897086,-1.53274 3.115753,-2.01017 1.218654,-0.47739 2.585982,-0.7161 4.101989,-0.71612 1.046949,2e-5 1.949427,0.0649 2.707439,0.19474 0.757985,0.12984 1.363127,0.25338 1.815428,0.37062 l 0,5.01284 c -0.184279,-0.10887 -0.408329,-0.21984 -0.672148,-0.33293 -0.263848,-0.11306 -0.561184,-0.21566 -0.89201,-0.30781 -0.330852,-0.0921 -0.6931,-0.1675 -1.086744,-0.22614 -0.393669,-0.0586 -0.812453,-0.0879 -1.256352,-0.0879 -0.628187,1e-5 -1.231235,0.0901 -1.809147,0.27011 -0.577931,0.18009 -1.084659,0.46277 -1.520186,0.84804 -0.435543,0.38529 -0.783133,0.87527 -1.042772,1.46993 -0.259653,0.59469 -0.389476,1.30243 -0.389469,2.12324 -7e-6,0.69519 0.104689,1.32964 0.314088,1.90337 0.209385,0.57374 0.515097,1.06372 0.917137,1.46993 0.402024,0.40623 0.894095,0.72241 1.476213,0.94855 0.5821,0.22615 1.241684,0.33922 1.978755,0.33921 0.427148,10e-6 0.835462,-0.0314 1.224943,-0.0942 0.389456,-0.0628 0.751704,-0.14448 1.086744,-0.24499 0.335014,-0.10051 0.64282,-0.20939 0.923419,-0.32665 0.280571,-0.11726 0.529747,-0.23033 0.747529,-0.33922 z" style="font-variant:normal;font-weight:800;font-stretch:normal;text-align:start;line-height:125%;writing-mode:lr-tb;text-anchor:start;fill:#4d4d4d;font-family:Segoe WP Black;-inkscape-font-specification:'Segoe WP Black, Ultra-Bold'" id="path2991"/>
        <path d="m -34.50104,338.28567 c -1.9e-5,1.43224 -0.234538,2.72419 -0.703557,3.87584 -0.469056,1.15166 -1.116077,2.1358 -1.941064,2.95243 -0.82502,0.81663 -1.79241,1.4448 -2.902173,1.88453 -1.10979,0.43972 -2.305417,0.65958 -3.586885,0.65958 -1.239609,0 -2.405922,-0.20939 -3.49894,-0.62817 -1.093032,-0.41879 -2.047858,-1.01974 -2.864483,-1.80287 -0.816631,-0.78312 -1.461558,-1.73586 -1.934782,-2.8582 -0.473227,-1.12234 -0.70984,-2.38706 -0.709839,-3.79418 -10e-7,-1.40711 0.226142,-2.69696 0.67843,-3.86957 0.452285,-1.17258 1.084648,-2.17975 1.897092,-3.02152 0.812436,-0.84174 1.786108,-1.49505 2.921018,-1.95991 1.134897,-0.46484 2.384966,-0.69726 3.750211,-0.69728 1.289843,2e-5 2.479189,0.21569 3.56804,0.64702 1.088823,0.43137 2.026898,1.04698 2.814228,1.84684 0.787297,0.79989 1.402909,1.77147 1.846837,2.91474 0.443893,1.14329 0.665848,2.42686 0.665867,3.85072 z m -5.754092,0.15076 c -1.3e-5,-0.77056 -0.07749,-1.45317 -0.232425,-2.04786 -0.154963,-0.59466 -0.372731,-1.0951 -0.653303,-1.50134 -0.280598,-0.4062 -0.615624,-0.71401 -1.005082,-0.92342 -0.38948,-0.20937 -0.822921,-0.31407 -1.300324,-0.31408 -0.611434,1e-5 -1.134914,0.12565 -1.57044,0.3769 -0.435544,0.25129 -0.79151,0.5905 -1.0679,1.01765 -0.276404,0.42717 -0.47742,0.92552 -0.603048,1.49506 -0.125642,0.56955 -0.18846,1.17679 -0.188453,1.82171 -7e-6,0.83757 0.09213,1.5516 0.276397,2.14208 0.184258,0.59049 0.43134,1.07209 0.741248,1.4448 0.309892,0.37272 0.665858,0.64493 1.067899,0.81663 0.402024,0.17171 0.820807,0.25756 1.256352,0.25755 0.418774,10e-6 0.824994,-0.09 1.218662,-0.27011 0.393645,-0.18008 0.743329,-0.45647 1.049053,-0.8292 0.3057,-0.37271 0.550689,-0.84803 0.734966,-1.42595 0.184252,-0.57792 0.276385,-1.26472 0.276398,-2.06042 z" style="font-variant:normal;font-weight:800;font-stretch:normal;text-align:start;line-height:125%;writing-mode:lr-tb;text-anchor:start;fill:#4d4d4d;font-family:Segoe WP Black;-inkscape-font-specification:'Segoe WP Black, Ultra-Bold'" id="path2993"/>
        <path d="m -14.952202,338.10978 c -1.9e-5,1.40712 -0.224068,2.68022 -0.672148,3.81931 -0.448117,1.13909 -1.08048,2.10858 -1.897092,2.90845 -0.816644,0.79988 -1.800785,1.41759 -2.952427,1.85312 -1.151668,0.43554 -2.431052,0.6533 -3.838155,0.6533 l -7.626057,0 0,-18.01608 7.462731,0 c 1.214463,1e-5 2.292831,0.10262 3.235106,0.3078 0.942251,0.20522 1.767254,0.49628 2.475014,0.87317 0.707729,0.37692 1.302402,0.82921 1.78402,1.35686 0.481584,0.52768 0.873147,1.11816 1.174689,1.77145 0.301506,0.65332 0.519273,1.35688 0.653303,2.11067 0.133992,0.75383 0.200997,1.54114 0.201016,2.36195 z m -5.766656,0.0503 c -1.3e-5,-0.58629 -0.08796,-1.15583 -0.263834,-1.70864 -0.175901,-0.55278 -0.443923,-1.04276 -0.804065,-1.46993 -0.360166,-0.42715 -0.81664,-0.76846 -1.369424,-1.02393 -0.552804,-0.25544 -1.206107,-0.38317 -1.959909,-0.38318 l -1.39455,0 0,9.52314 1.520185,0 c 0.66167,1e-5 1.256342,-0.11935 1.78402,-0.35806 0.527657,-0.2387 0.975756,-0.57373 1.344297,-1.00508 0.368518,-0.43134 0.651197,-0.95063 0.848038,-1.55787 0.196815,-0.60723 0.295229,-1.27938 0.295242,-2.01645 z" style="font-variant:normal;font-weight:800;font-stretch:normal;text-align:start;line-height:125%;writing-mode:lr-tb;text-anchor:start;fill:#4d4d4d;font-family:Segoe WP Black;-inkscape-font-specification:'Segoe WP Black, Ultra-Bold'" id="path2995"/>
      </g>
    </g>
  </g>

	
	
	<metadata>
		<rdf:RDF xmlns:rdf="http://www.w3.org/1999/02/22-rdf-syntax-ns#" xmlns:rdfs="http://www.w3.org/2000/01/rdf-schema#" xmlns:dc="http://purl.org/dc/elements/1.1/">
			<rdf:Description about="https://iconscout.com/legal#licenses" dc:title="Cod, Credit, Debit, Card, Bank, Transaction" dc:description="Cod, Credit, Debit, Card, Bank, Transaction" dc:publisher="Iconscout" dc:date="2016-12-14" dc:format="image/svg+xml" dc:language="en">
				<dc:creator>
					<rdf:Bag>
						<rdf:li>Dalpat Prajapati</rdf:li>
					</rdf:Bag>
				</dc:creator>
			</rdf:Description>
		</rdf:RDF>
    </metadata></svg>
